# xmcd CD database file
#
# Track frame offsets:
#	150
#	36829
#	60557
#	99952
#	120794
#	144465
#	176912
#
# Disc length: 2851 seconds
#
# Revision: 0
# Processed by: cddbd v1.4PL0 Copyright (c) Steve Scherf et al.
# Submitted via: CDex 1.51
#
DISCID=540b2107
DTITLE=Smokehouse Dave and the BBQ Kings - Walkin' With Smokehouse
DYEAR=2002
DGENRE=Blues
TTITLE0=Everyday I Have the Blues
TTITLE1=Woman Gonna Change Her Mind
TTITLE2=Little Schoolgirl
TTITLE3=Walkin' With Smokehouse
TTITLE4=King Bee
TTITLE5=Afraid of Losing You
TTITLE6=There it Stands
EXTD=YEAR: 2002
EXTT0=
EXTT1=
EXTT2=
EXTT3=
EXTT4=
EXTT5=
EXTT6=
PLAYORDER=
